<?xml version="1.0" encoding="utf-8"?><svg xmlns="http://www.w3.org/2000/svg" xmlns:xlink="http://www.w3.org/1999/xlink"><symbol viewBox="0 0 64 64" stroke-width="3" id="settings" xmlns="http://www.w3.org/2000/svg"><path d="M45,14.67l-2.76,2a1,1,0,0,1-1,.11L37.65,15.3a1,1,0,0,1-.61-.76l-.66-3.77a1,1,0,0,0-1-.84H30.52a1,1,0,0,0-1,.77l-.93,3.72a1,1,0,0,1-.53.65l-3.3,1.66a1,1,0,0,1-1-.08l-3-2.13a1,1,0,0,0-1.31.12l-3.65,3.74a1,1,0,0,0-.13,1.26l1.87,2.88a1,1,0,0,1,.1.89L16.34,27a1,1,0,0,1-.68.63l-3.85,1.06a1,1,0,0,0-.74,1v4.74a1,1,0,0,0,.8,1l3.9.8a1,1,0,0,1,.72.57l1.42,3.15a1,1,0,0,1-.05.92l-2.13,3.63a1,1,0,0,0,.17,1.24L19.32,49a1,1,0,0,0,1.29.09L23.49,47a1,1,0,0,1,1-.1l3.74,1.67a1,1,0,0,1,.59.75l.66,3.79a1,1,0,0,0,1,.84h4.89a1,1,0,0,0,1-.86l.58-4a1,1,0,0,1,.58-.77l3.58-1.62a1,1,0,0,1,1,.09l3.14,2.12a1,1,0,0,0,1.3-.15L50,45.06a1,1,0,0,0,.09-1.27l-2.08-3a1,1,0,0,1-.09-1l1.48-3.43a1,1,0,0,1,.71-.59L53.77,35a1,1,0,0,0,.8-1V29.42a1,1,0,0,0-.8-1l-3.72-.78a1,1,0,0,1-.73-.62l-1.45-3.65a1,1,0,0,1,.11-.94l2.15-3.14A1,1,0,0,0,50,18l-3.71-3.25A1,1,0,0,0,45,14.67Z"/><circle cx="32.82" cy="31.94" r="9.94"/></symbol><symbol viewBox="0 0 24 24" id="user" xmlns="http://www.w3.org/2000/svg"><path d="M18.5588 19.5488C17.5654 16.8918 15.0036 15 12 15C8.99638 15 6.4346 16.8918 5.44117 19.5488M18.5588 19.5488C20.6672 17.7154 22 15.0134 22 12C22 6.47715 17.5228 2 12 2C6.47715 2 2 6.47715 2 12C2 15.0134 3.33285 17.7154 5.44117 19.5488M18.5588 19.5488C16.8031 21.0756 14.5095 22 12 22C9.49052 22 7.19694 21.0756 5.44117 19.5488M15 9C15 10.6569 13.6569 12 12 12C10.3431 12 9 10.6569 9 9C9 7.34315 10.3431 6 12 6C13.6569 6 15 7.34315 15 9Z" stroke-width="1.5" stroke-linejoin="round"/></symbol></svg>