<?xml version="1.0" encoding="utf-8"?><svg viewBox="0 0 24 24" xmlns="http://www.w3.org/2000/svg" xmlns:xlink="http://www.w3.org/1999/xlink"><style>:root>svg{display:none}:root>svg:target{display:block}</style><svg fill="none" viewBox="0 0 24 24" id="user" xmlns="http://www.w3.org/2000/svg"><path d="M18.559 19.549a7.003 7.003 0 0 0-13.118 0m13.118 0A9.976 9.976 0 0 0 22 12c0-5.523-4.477-10-10-10S2 6.477 2 12a9.977 9.977 0 0 0 3.441 7.549m13.118 0A9.961 9.961 0 0 1 12 22a9.961 9.961 0 0 1-6.559-2.451M15 9a3 3 0 1 1-6 0 3 3 0 0 1 6 0Z" stroke="#141718" stroke-width="1.5" stroke-linejoin="round"/></svg></svg>